<svg width="60" height="75" viewBox="0 0 60 75" fill="none" xmlns="http://www.w3.org/2000/svg">
<path d="M24.9957 0V17.5014C24.9957 19.489 25.7843 21.3953 27.1885 22.8016C28.5926 24.208 30.4973 24.9994 32.4844 25.002H49.9814V30.1775C47.3852 30.6272 44.9924 31.8711 43.1325 33.7378L21.7012 55.1745C19.2802 57.5951 17.5626 60.6285 16.7321 63.9502L15.2224 69.9957H7.4987C5.50992 69.9957 3.6026 69.2055 2.19632 67.7989C0.79004 66.3922 0 64.4844 0 62.4951V7.50061C0 5.51133 0.79004 3.60352 2.19632 2.19688C3.6026 0.790241 5.50992 0 7.4987 0H24.9957ZM49.9814 35.3029C48.7309 35.6726 47.5931 36.3499 46.6719 37.2731L25.2456 58.7048C23.4674 60.4845 22.206 62.7141 21.5963 65.1553L20.0815 71.2108C19.9542 71.7211 19.9608 72.2555 20.1009 72.7624C20.241 73.2693 20.5097 73.7313 20.881 74.1037C21.2522 74.476 21.7134 74.7461 22.2198 74.8875C22.7261 75.029 23.2605 75.0371 23.7709 74.9111L29.8248 73.396C32.2655 72.7864 34.4946 71.5246 36.2737 69.7457L57.71 48.304C58.9381 47.0781 59.7225 45.4777 59.939 43.7559C60.1555 42.0341 59.7919 40.2892 58.9056 38.7974C58.0193 37.3055 56.661 36.1519 55.0456 35.519C53.4302 34.886 51.6498 34.81 49.9864 35.3029H49.9814ZM29.9848 1.2501V17.5014C29.9848 18.1645 30.2482 18.8005 30.7169 19.2693C31.1857 19.7382 31.8215 20.0016 32.4844 20.0016H48.7316L29.9848 1.2501V1.2501Z" fill="black"/>
</svg>
