<svg width="75" height="75" viewBox="0 0 75 75" fill="none" xmlns="http://www.w3.org/2000/svg">
<path d="M37.4899 24.9947C30.6041 24.9947 24.9848 30.6141 24.9848 37.5C24.9848 44.3859 30.6041 50.0053 37.4899 50.0053C44.3757 50.0053 49.995 44.3859 49.995 37.5C49.995 30.6141 44.3757 24.9947 37.4899 24.9947ZM74.9958 37.5C74.9958 32.3215 75.0427 27.1899 74.7519 22.0208C74.4611 16.0167 73.0914 10.6881 68.7011 6.29767C64.3013 1.89782 58.9822 0.537527 52.9782 0.246705C47.7998 -0.0441164 42.6683 0.00279042 37.4993 0.00279042C32.3209 0.00279042 27.1894 -0.0441164 22.0204 0.246705C16.0164 0.537527 10.6879 1.9072 6.29755 6.29767C1.89779 10.6975 0.537517 16.0167 0.2467 22.0208C-0.0441156 27.1993 0.00279037 32.3309 0.00279037 37.5C0.00279037 42.6691 -0.0441156 47.8101 0.2467 52.9792C0.537517 58.9833 1.90717 64.3119 6.29755 68.7023C10.6973 73.1022 16.0164 74.4625 22.0204 74.7533C27.1988 75.0441 32.3303 74.9972 37.4993 74.9972C42.6777 74.9972 47.8092 75.0441 52.9782 74.7533C58.9822 74.4625 64.3107 73.0928 68.7011 68.7023C73.1008 64.3025 74.4611 58.9833 74.7519 52.9792C75.0521 47.8101 74.9958 42.6785 74.9958 37.5ZM37.4899 56.7411C26.8423 56.7411 18.2492 48.1478 18.2492 37.5C18.2492 26.8522 26.8423 18.2589 37.4899 18.2589C48.1375 18.2589 56.7307 26.8522 56.7307 37.5C56.7307 48.1478 48.1375 56.7411 37.4899 56.7411ZM57.5187 21.9645C55.0327 21.9645 53.0251 19.9569 53.0251 17.4708C53.0251 14.9848 55.0327 12.9772 57.5187 12.9772C60.0047 12.9772 62.0123 14.9848 62.0123 17.4708C62.013 18.0612 61.8973 18.6458 61.6717 19.1914C61.4462 19.7369 61.1152 20.2326 60.6978 20.65C60.2804 21.0674 59.7847 21.3984 59.2392 21.624C58.6937 21.8495 58.109 21.9652 57.5187 21.9645Z" fill="black"/>
</svg>
