<?xml version="1.0" encoding="UTF-8"?>
<!DOCTYPE svg PUBLIC "-//W3C//DTD SVG 1.1//EN" "http://www.w3.org/Graphics/SVG/1.1/DTD/svg11.dtd">
<!-- Creator: CorelDRAW -->
<svg xmlns="http://www.w3.org/2000/svg" xml:space="preserve" width="177.621mm" height="75.8226mm" version="1.1" style="shape-rendering:geometricPrecision; text-rendering:geometricPrecision; image-rendering:optimizeQuality; fill-rule:evenodd; clip-rule:evenodd"
viewBox="0 0 17760.26 7581.48"
 xmlns:xlink="http://www.w3.org/1999/xlink"
 xmlns:xodm="http://www.corel.com/coreldraw/odm/2003">
 <defs>
  <style type="text/css">
   <![CDATA[
    .str0 {stroke:black;stroke-width:423.29;stroke-miterlimit:22.9256}
    .fil3 {fill:none}
    .fil0 {fill:black}
    .fil1 {fill:#333300;fill-rule:nonzero}
    .fil2 {fill:white;fill-rule:nonzero}
   ]]>
  </style>
 </defs>
 <g id="Layer_x0020_1">
  <metadata id="CorelCorpID_0Corel-Layer"/>
  <g id="_2787218402320">
   <rect class="fil0" x="12928.5" y="3618.72" width="3170.22" height="3962.77"/>
   <polygon class="fil1" points="1588.01,6810.46 1588.01,4564.29 1300.87,4564.29 1300.87,4386.2 2045.96,4386.2 2045.96,4564.29 1766.1,4564.29 1766.1,6810.46 "/>
   <path id="_1" class="fil1" d="M3328.96 6715.96c0,36.35 -12.12,66.63 -36.35,90.87 -24.23,24.23 -54.52,36.34 -90.86,36.34 -36.35,0 -67.24,-12.72 -92.69,-38.16 -25.44,-25.45 -38.16,-56.33 -38.16,-92.68 0,-36.35 13.33,-66.63 39.98,-90.87 26.66,-24.23 58.15,-36.35 94.5,-36.35 82.38,0 123.58,43.62 123.58,130.85z"/>
   <path id="_2" class="fil1" d="M4353.9 6632.37l105.41 0c159.92,0 278.65,-18.18 356.18,-54.52 113.89,-53.3 170.83,-155.07 170.83,-305.3 0,-123.58 -46.65,-272.59 -139.94,-447.05 -93.29,-174.46 -184.76,-342.86 -274.41,-505.21 -99.34,-193.84 -149.01,-352.55 -149.01,-476.13 0,-150.22 48.46,-264.11 145.39,-341.64 96.92,-77.54 222.92,-116.31 377.99,-116.31l130.85 0 0 174.46c-152.65,0 -256.84,9.69 -312.58,29.08 -109.03,38.77 -163.55,121.15 -163.55,247.14 0,123.58 48.47,277.44 145.39,461.59 89.65,159.92 181.12,327.12 274.41,501.57 93.29,174.46 139.93,330.75 139.93,468.86 0,174.46 -57.54,308.34 -172.64,401.62 -115.09,93.29 -262.29,139.94 -441.59,139.94l-192.64 0 0 -178.09z"/>
   <polygon id="_3" class="fil1" points="6280.24,6810.46 6280.24,4564.29 5993.1,4564.29 5993.1,4386.2 6738.19,4386.2 6738.19,4564.29 6458.33,4564.29 6458.33,6810.46 "/>
   <path id="_4" class="fil1" d="M8544.56 6374.32c0,135.69 -34.53,247.75 -103.58,336.2 -69.06,88.44 -170.22,132.66 -303.49,132.66 -135.7,0 -239.89,-44.22 -312.58,-132.66 -72.69,-88.44 -109.04,-202.93 -109.04,-343.46l0 -1980.85 178.1 0 0 1973.58c0,89.65 17.56,162.94 52.69,219.89 35.14,56.94 96.32,85.41 183.55,85.41 87.23,0 149.01,-27.26 185.36,-81.77 36.35,-54.52 54.51,-127.82 54.51,-219.9l0 -1977.21 174.46 0 0 1988.12z"/>
   <path id="_5" class="fil1" d="M9674.92 4386.2l159.92 0c341.64,0 629.99,115.1 865.02,345.28 235.04,230.19 352.55,516.11 352.55,857.76 0,339.23 -119.94,627.57 -359.82,865.02 -239.88,237.47 -530.65,356.19 -872.29,356.19l-145.39 0 0 -2424.26zm1199.41 1199.41c0,-283.49 -99.95,-526.41 -299.85,-728.74 -199.9,-202.32 -440.39,-303.48 -721.47,-303.48l0 2075.34c288.34,0 530.65,-100.55 726.92,-301.67 196.27,-201.11 294.4,-448.26 294.4,-741.45z"/>
   <polygon id="_6" class="fil1" points="12077.36,6810.46 12077.36,4386.2 12255.46,4386.2 12255.46,6810.46 "/>
   <path id="_7" class="fil2" d="M15770.08 5603.79c0,341.64 -121.15,633.63 -363.45,875.93 -242.31,242.31 -535.5,363.45 -879.57,363.45 -341.64,0 -634.24,-119.33 -877.75,-358 -243.52,-238.67 -365.27,-528.83 -365.27,-870.48 0,-353.76 122.37,-651.8 367.09,-894.11 244.72,-242.31 545.18,-363.45 901.38,-363.45 339.23,0 626.97,122.37 863.21,367.09 236.25,244.72 354.36,537.91 354.36,879.57zm-2311.58 -3.64c0,298.04 102.98,550.03 308.94,755.99 205.96,205.96 457.95,308.94 755.99,308.94 293.19,0 544.57,-102.37 754.17,-307.12 209.59,-204.75 314.39,-452.5 314.39,-743.27 0,-312.57 -104.19,-570.63 -312.57,-774.16 -208.39,-203.54 -468.86,-305.31 -781.44,-305.31 -288.34,0 -533.68,104.8 -736,314.39 -202.32,209.6 -303.48,459.78 -303.48,750.54z"/>
   <polyline class="fil3 str0" points="78.54,3676.8 8709.92,227.5 17683.54,3717.87 "/>
  </g>
 </g>
</svg>
