<svg width="57" height="65" viewBox="0 0 57 65" fill="none" xmlns="http://www.w3.org/2000/svg">
<path d="M46 0C48.7848 0 51.4555 1.26428 53.4246 3.51472C55.3938 5.76516 56.5 8.8174 56.5 12L56.5 48.304C56.4998 48.7061 56.3957 49.0992 56.2006 49.4339C56.0056 49.7686 55.7283 50.03 55.4037 50.1851C55.0791 50.3403 54.7216 50.3823 54.3761 50.306C54.0306 50.2296 53.7126 50.0383 53.462 49.756L48.765 44.456L35.682 29.736C34.7 28.6318 33.3776 28.013 32 28.013C30.6224 28.013 29.3 28.6318 28.318 29.736L22.221 36.596L14.143 27.364C12.3738 25.3358 10.0034 24.1397 7.5 24.012V12C7.5 8.8174 8.60625 5.76516 10.5754 3.51472C12.5445 1.26428 15.2152 0 18 0L46 0ZM18 18C18 18.7879 18.1358 19.5681 18.3996 20.2961C18.6635 21.0241 19.0502 21.6855 19.5377 22.2426C20.0252 22.7998 20.604 23.2417 21.2409 23.5433C21.8779 23.8448 22.5606 24 23.25 24C23.9394 24 24.6221 23.8448 25.2591 23.5433C25.896 23.2417 26.4748 22.7998 26.9623 22.2426C27.4498 21.6855 27.8365 21.0241 28.1004 20.2961C28.3642 19.5681 28.5 18.7879 28.5 18C28.5 16.4087 27.9469 14.8826 26.9623 13.7574C25.9777 12.6321 24.6424 12 23.25 12C21.8576 12 20.5223 12.6321 19.5377 13.7574C18.5531 14.8826 18 16.4087 18 18V18ZM21.5 18C21.5 18.5304 21.6844 19.0391 22.0126 19.4142C22.3408 19.7893 22.7859 20 23.25 20C23.7141 20 24.1593 19.7893 24.4874 19.4142C24.8156 19.0391 25 18.5304 25 18C25 17.4696 24.8156 16.9609 24.4874 16.5858C24.1593 16.2107 23.7141 16 23.25 16C22.7859 16 22.3408 16.2107 22.0126 16.5858C21.6844 16.9609 21.5 17.4696 21.5 18V18ZM31.0445 46.68L24.699 39.424L30.7715 32.588C31.0989 32.2191 31.5402 32.0124 32 32.0124C32.4598 32.0124 32.9011 32.2191 33.2285 32.588L48.0125 49.224C48.7825 50.168 48.0405 51.572 46.9765 51.136L45.832 50.668C43.3645 49.656 39.658 48.468 36.2175 50.052C35.2165 50.512 34.4255 51.172 33.8235 51.94C33.2845 49.96 32.3325 48.152 31.0445 46.68V46.68ZM28.57 49.508L11.665 30.188C10.4369 28.7855 8.77164 27.9981 7.03553 27.9988C5.29941 27.9996 3.63466 28.7885 2.4075 30.192C1.18035 31.5955 0.491303 33.4987 0.49196 35.4828C0.492616 37.467 1.18292 39.3695 2.411 40.772L19.316 60.088C20.3008 61.214 21.5347 62.0131 22.886 62.4L27.1595 63.62C31.0865 64.932 36.942 64.508 38.7585 62.888C40.33 61.488 40.393 59.34 39.8645 57.912C39.7455 57.592 39.9555 57.18 40.253 57.232C41.9855 57.512 43.403 58.232 44.803 58.94C46.847 59.98 48.849 60.992 51.719 60.584C54.2075 60.232 55.5935 58.748 56.3565 57.284C56.7835 56.468 55.842 55.716 55.0965 56.14C53.8085 56.876 52.195 57.48 50.8405 57.14C49.962 56.916 48.821 56.368 47.54 55.752C44.4425 54.26 40.5295 52.38 37.5195 53.764C35.2935 54.788 35.479 57.688 36.1055 59.084C36.228 59.348 36.1335 59.724 35.878 59.792C34.598 60.0893 33.291 60.2075 31.986 60.144C31.9719 59.9552 31.9449 59.768 31.9055 59.584L30.593 53.592C30.2573 52.0464 29.5577 50.6354 28.57 49.512V49.508Z" fill="black"/>
</svg>
