<svg width="60" height="54" viewBox="0 0 60 54" fill="none" xmlns="http://www.w3.org/2000/svg">
<path d="M53.3333 0.333344H6.66668C3.44959 0.333344 0.833344 3.32334 0.833344 7.00001V47C0.833344 50.6767 3.44959 53.6667 6.66668 53.6667H53.3333C56.5504 53.6667 59.1667 50.6767 59.1667 47V7.00001C59.1667 3.32334 56.5504 0.333344 53.3333 0.333344ZM20.4188 13.6667C23.7758 13.6667 26.2521 16.4967 26.2521 20.3333C26.2521 24.17 23.7758 27 20.4188 27C17.0617 27 14.5854 24.17 14.5854 20.3333C14.5854 16.4967 17.0588 13.6667 20.4188 13.6667ZM31.2542 40.3333H9.58334V38.7833C9.58334 34.2067 14.4717 29.5 20.4188 29.5C26.3658 29.5 31.2542 34.2067 31.2542 38.7833V40.3333ZM50.4167 37H38.75V30.3333H50.4167V37ZM50.4167 23.6667H35.8333V17H50.4167V23.6667Z" fill="black"/>
</svg>
