<svg width="56" height="58" viewBox="0 0 56 58" fill="none" xmlns="http://www.w3.org/2000/svg">
<path d="M54.9453 38.9375C55.2023 39.3042 55.3636 39.7463 55.4108 40.213C55.458 40.6797 55.3891 41.1522 55.2122 41.5762C55.0352 42.0003 54.7573 42.3588 54.4102 42.6106C54.0632 42.8624 53.6611 42.9974 53.25 43H5.125V55.5C5.125 56.163 4.89453 56.7989 4.4843 57.2678C4.07406 57.7366 3.51766 58 2.9375 58C2.35734 58 1.80094 57.7366 1.3907 57.2678C0.980469 56.7989 0.75 56.163 0.75 55.5V3C0.75 2.33696 0.980469 1.70107 1.3907 1.23223C1.80094 0.763393 2.35734 0.5 2.9375 0.5H53.25C53.6611 0.502637 54.0632 0.637601 54.4102 0.889421C54.7573 1.14124 55.0352 1.49973 55.2122 1.92378C55.3891 2.34783 55.458 2.82029 55.4108 3.287C55.3636 3.7537 55.2023 4.19576 54.9453 4.5625L42.9141 21.75L54.9453 38.9375Z" fill="black"/>
</svg>
