<svg width="64" height="48" viewBox="0 0 64 48" fill="none" xmlns="http://www.w3.org/2000/svg">
<path d="M2.509 5.144L28.759 21.26C29.641 21.8 30.782 22.056 31.93 22.056C33.078 22.056 34.219 21.8 35.101 21.26L61.351 5.144C63.0625 4.092 64.6795 0 61.54 0H2.3235C-0.816002 0 0.800998 4.092 2.509 5.144ZM62.1455 13.956L35.101 30.064C33.911 30.776 33.078 30.86 31.93 30.86C30.782 30.86 29.949 30.776 28.759 30.064C27.569 29.352 3.7935 15.108 1.851 13.952C0.485998 13.136 0.499998 14.092 0.499998 14.828V44C0.499998 45.68 2.481 48 4 48H60C61.519 48 63.5 45.68 63.5 44V14.832C63.5 14.096 63.514 13.14 62.1455 13.956Z" fill="black"/>
</svg>
