<svg width="73" height="72" viewBox="0 0 73 72" fill="none" xmlns="http://www.w3.org/2000/svg">
<path d="M67.6 16.6499C56.8 -6.2108e-05 34.75 -4.95006 17.65 5.39994C0.999984 15.7499 -4.40001 38.2499 6.39998 54.8999L7.29998 56.2499L3.69998 69.7499L17.2 66.1499L18.55 67.0499C24.4 70.1999 30.7 71.9999 37 71.9999C43.75 71.9999 50.5 70.1999 56.35 66.5999C73 55.7999 77.95 33.7499 67.6 16.6499ZM58.15 51.2999C56.35 53.9999 54.1 55.7999 50.95 56.2499C49.15 56.2499 46.9 57.1499 37.9 53.5499C30.25 49.9499 23.95 44.0999 19.45 37.3499C16.75 34.1999 15.4 30.1499 14.95 26.0999C14.95 22.4999 16.3 19.3499 18.55 17.0999C19.45 16.1999 20.35 15.7499 21.25 15.7499H23.5C24.4 15.7499 25.3 15.7499 25.75 17.5499C26.65 19.7999 28.9 25.1999 28.9 25.6499C29.35 26.0999 29.35 26.9999 28.9 27.4499C29.35 28.3499 28.9 29.2499 28.45 29.6999C28 30.1499 27.55 31.0499 27.1 31.4999C26.2 31.9499 25.75 32.8499 26.2 33.7499C28 36.4499 30.25 39.1499 32.5 41.3999C35.2 43.6499 37.9 45.4499 41.05 46.7999C41.95 47.2499 42.85 47.2499 43.3 46.3499C43.75 45.4499 46 43.1999 46.9 42.2999C47.8 41.3999 48.25 41.3999 49.15 41.8499L56.35 45.4499C57.25 45.8999 58.15 46.3499 58.6 46.7999C59.05 48.1499 59.05 49.9499 58.15 51.2999Z" fill="black"/>
</svg>
